<?xml version="1.0" encoding="utf-8"?>
<!-- Generator: Adobe Illustrator 25.0.1, SVG Export Plug-In . SVG Version: 6.00 Build 0)  -->
<svg version="1.0" id="katman_1" xmlns="http://www.w3.org/2000/svg" xmlns:xlink="http://www.w3.org/1999/xlink" x="0px" y="0px"
	 viewBox="0 0 560 400" style="enable-background:new 0 0 560 400;" xml:space="preserve">
<style type="text/css">
	.st0{clip-path:url(#SVGID_2_);}
	.st1{clip-path:url(#SVGID_4_);}
	.st2{clip-path:url(#SVGID_6_);}
	.st3{clip-path:url(#SVGID_8_);}
	.st4{clip-path:url(#SVGID_10_);}
	.st5{clip-path:url(#SVGID_12_);}
	.st6{clip-path:url(#SVGID_14_);}
	.st7{clip-path:url(#SVGID_16_);}
	.st8{clip-path:url(#SVGID_18_);}
	.st9{clip-path:url(#SVGID_20_);}
	.st10{clip-path:url(#SVGID_22_);}
	.st11{clip-path:url(#SVGID_24_);}
	.st12{clip-path:url(#SVGID_26_);}
	.st13{clip-path:url(#SVGID_28_);}
	.st14{fill:#FEFEFE;}
	.st15{clip-path:url(#SVGID_30_);}
</style>
<g>
	<defs>
		<polyline id="SVGID_1_" points="62,155.1 62,246.2 497.7,246.2 497.7,155.1 		"/>
	</defs>
	<clipPath id="SVGID_2_">
		<use xlink:href="#SVGID_1_"  style="overflow:visible;"/>
	</clipPath>
	<g transform="matrix(1.7651563782 0 0 -1.78571530455 62.012570715 245.133922815)" class="st0">
		<path d="M0,50.6V0.2h17.9v8.2h-9v15.2h7.1v8.3H8.9v10.4h9v8.2H0z"/>
	</g>
</g>
<g>
	<defs>
		<polyline id="SVGID_3_" points="62,155.1 62,246.2 497.7,246.2 497.7,155.1 		"/>
	</defs>
	<clipPath id="SVGID_4_">
		<use xlink:href="#SVGID_3_"  style="overflow:visible;"/>
	</clipPath>
	<g transform="matrix(1.7651563782 0 0 -1.78571530455 62.012570715 245.133922815)" class="st1">
		<path d="M19.3,38.5h8.1v-2c1,1.5,3,2.5,5.6,2.5c5.2,0,5.9-2.3,5.9-8.8V0.2h-8.2v28.5c0,2-0.4,2.3-1.4,2.3c-1.1,0-1.8-0.2-1.8-2.3
			V0.2h-8.1L19.3,38.5z"/>
	</g>
</g>
<g>
	<defs>
		<polyline id="SVGID_5_" points="62,155.1 62,246.2 497.7,246.2 497.7,155.1 		"/>
	</defs>
	<clipPath id="SVGID_6_">
		<use xlink:href="#SVGID_5_"  style="overflow:visible;"/>
	</clipPath>
	<g transform="matrix(1.7651563782 0 0 -1.78571530455 62.012570715 245.133922815)" class="st2">
		<path d="M40.1,38.5h2.2v9.3h8v-9.3H53v-7.7h-2.8V10.7c0-2.4,0.7-2.8,2.4-2.8H53V0.2h-2.9c-5.6,0-8,2.3-8,8.6v22h-2.2V38.5z"/>
	</g>
</g>
<g>
	<defs>
		<polyline id="SVGID_7_" points="62,155.1 62,246.2 497.7,246.2 497.7,155.1 		"/>
	</defs>
	<clipPath id="SVGID_8_">
		<use xlink:href="#SVGID_7_"  style="overflow:visible;"/>
	</clipPath>
	<g transform="matrix(1.7651563782 0 0 -1.78571530455 62.012570715 245.133922815)" class="st3">
		<path d="M64,0c7.5,0,8.9,3.8,9.1,11.8l-7.5,0.4c0-4.3-0.6-4.9-1.9-4.9c-1.3,0-1.9,0.8-1.9,4.3v4.6h11.3v11.1
			c0,8.3-2.2,11.6-9.2,11.6c-7.1,0-9.9-2.7-9.9-11.7V11.6C54.1,3.5,56.3,0,64,0L64,0z M61.8,27.3c0,3.3,0.6,4.1,2,4.1
			c1.4,0,1.9-0.8,1.9-4v-4.2h-3.8V27.3z"/>
	</g>
</g>
<g>
	<defs>
		<polyline id="SVGID_9_" points="62,155.1 62,246.2 497.7,246.2 497.7,155.1 		"/>
	</defs>
	<clipPath id="SVGID_10_">
		<use xlink:href="#SVGID_9_"  style="overflow:visible;"/>
	</clipPath>
	<g transform="matrix(1.7651563782 0 0 -1.78571530455 62.012570715 245.133922815)" class="st4">
		<path d="M75,38.5h8.1v-2.3c0.9,1.4,2.3,2.2,3.3,2.3v-7.7c-2.2-0.2-3.3-0.7-3.3-6V0.2H75V38.5z"/>
	</g>
</g>
<g>
	<defs>
		<polyline id="SVGID_11_" points="62,155.1 62,246.2 497.7,246.2 497.7,155.1 		"/>
	</defs>
	<clipPath id="SVGID_12_">
		<use xlink:href="#SVGID_11_"  style="overflow:visible;"/>
	</clipPath>
	<g transform="matrix(1.7651563782 0 0 -1.78571530455 62.012570715 245.133922815)" class="st5">
		<path d="M87.2,38.5h1.9v9.3h8v-9.3h2.9v-7.8h-2.9v-20c0-2.4,0.7-2.8,2.4-2.8h0.5V0.2H97c-5.6,0-8,2.3-8,8.6v21.9h-1.9L87.2,38.5z"
			/>
	</g>
</g>
<g>
	<defs>
		<polyline id="SVGID_13_" points="62,155.1 62,246.2 497.7,246.2 497.7,155.1 		"/>
	</defs>
	<clipPath id="SVGID_14_">
		<use xlink:href="#SVGID_13_"  style="overflow:visible;"/>
	</clipPath>
	<g transform="matrix(1.7651563782 0 0 -1.78571530455 62.012570715 245.133922815)" class="st6">
		<path d="M106.5,0.1c3.5,0,4.8,0.5,5.6,2V0.2h7.5v29.7c0,6.8-1.4,9-8.8,9c-6.9,0-9.8-3.2-10.2-9.7l7.7-0.8c0.2,2,0.3,2.9,2.1,2.9
			c1.3,0,1.6-0.5,1.6-2.8v-1.4c-9.4-2.5-11.3-6.2-11.3-16.1C100.6,3.2,101.3,0.2,106.5,0.1L106.5,0.1z M109.9,7.1
			c-1.4,0-1.6,1.2-1.6,4.6c0,5.6,0.8,6.8,3.6,7.8v-8.9C111.9,7.6,111.5,7.1,109.9,7.1L109.9,7.1z"/>
	</g>
</g>
<g>
	<defs>
		<polyline id="SVGID_15_" points="62,155.1 62,246.2 497.7,246.2 497.7,155.1 		"/>
	</defs>
	<clipPath id="SVGID_16_">
		<use xlink:href="#SVGID_15_"  style="overflow:visible;"/>
	</clipPath>
	<g transform="matrix(1.7651563782 0 0 -1.78571530455 62.012570715 245.133922815)" class="st7">
		<path d="M121.9,47.8h7.9v-8.1h-7.9V47.8z M121.9,38.5h7.9V0.2h-7.9V38.5z"/>
	</g>
</g>
<g>
	<defs>
		<polyline id="SVGID_17_" points="62,155.1 62,246.2 497.7,246.2 497.7,155.1 		"/>
	</defs>
	<clipPath id="SVGID_18_">
		<use xlink:href="#SVGID_17_"  style="overflow:visible;"/>
	</clipPath>
	<g transform="matrix(1.7651563782 0 0 -1.78571530455 62.012570715 245.133922815)" class="st8">
		<path d="M132.4,38.5h8.1v-2c1.1,1.5,3,2.5,5.6,2.5c5.2,0,5.8-2.3,5.8-8.8V0.2h-8.1v28.5c0,2-0.4,2.3-1.4,2.3
			c-1.1,0-1.8-0.2-1.8-2.3V0.2h-8.1V38.5z"/>
	</g>
</g>
<g>
	<defs>
		<polyline id="SVGID_19_" points="62,155.1 62,246.2 497.7,246.2 497.7,155.1 		"/>
	</defs>
	<clipPath id="SVGID_20_">
		<use xlink:href="#SVGID_19_"  style="overflow:visible;"/>
	</clipPath>
	<g transform="matrix(1.7651563782 0 0 -1.78571530455 62.012570715 245.133922815)" class="st9">
		<path d="M176.2,28.8c0,2-0.3,2.3-1.4,2.3c-1.4,0-1.6-0.5-1.6-2.3V0.2h-8v28.5c0,2-0.3,2.3-1.4,2.3c-1.1,0-1.6-0.2-1.6-2.3V0.2h-8
			v38.2h8v-2c1.1,1.5,2.8,2.5,5.3,2.5c3.2,0,4.6-0.9,5.2-3.2c1.1,1.8,2.8,3.2,5.7,3.2c5.2,0,5.9-2,5.9-8.8V0.2h-8V28.8z"/>
	</g>
</g>
<g>
	<defs>
		<polyline id="SVGID_21_" points="62,155.1 62,246.2 497.7,246.2 497.7,155.1 		"/>
	</defs>
	<clipPath id="SVGID_22_">
		<use xlink:href="#SVGID_21_"  style="overflow:visible;"/>
	</clipPath>
	<g transform="matrix(1.7651563782 0 0 -1.78571530455 62.012570715 245.133922815)" class="st10">
		<path d="M196.1,0c7.5,0,8.9,3.8,9.1,11.8l-7.6,0.4c0-4.3-0.6-4.9-1.9-4.9c-1.3,0-1.9,0.8-1.9,4.3v4.6h11.4v11.1
			c0,8.3-2.2,11.6-9.2,11.6c-7.1,0-9.9-2.7-9.9-11.7V11.6C186.1,3.5,188.4,0,196.1,0L196.1,0z M193.9,27.3c0,3.3,0.6,4.1,1.9,4.1
			c1.4,0,1.9-0.8,1.9-4v-4.2h-3.8V27.3z"/>
	</g>
</g>
<g>
	<defs>
		<polyline id="SVGID_23_" points="62,155.1 62,246.2 497.7,246.2 497.7,155.1 		"/>
	</defs>
	<clipPath id="SVGID_24_">
		<use xlink:href="#SVGID_23_"  style="overflow:visible;"/>
	</clipPath>
	<g transform="matrix(1.7651563782 0 0 -1.78571530455 62.012570715 245.133922815)" class="st11">
		<path d="M207.1,38.5h8.2v-2c1.1,1.5,2.9,2.5,5.6,2.5c5.1,0,5.8-2.3,5.8-8.8V0.2h-8.2v28.5c0,2-0.4,2.3-1.4,2.3
			c-1.1,0-1.7-0.2-1.7-2.3V0.2h-8.2V38.5z"/>
	</g>
</g>
<g>
	<defs>
		<polyline id="SVGID_25_" points="62,155.1 62,246.2 497.7,246.2 497.7,155.1 		"/>
	</defs>
	<clipPath id="SVGID_26_">
		<use xlink:href="#SVGID_25_"  style="overflow:visible;"/>
	</clipPath>
	<g transform="matrix(1.7651563782 0 0 -1.78571530455 62.012570715 245.133922815)" class="st12">
		<path d="M227.9,38.5h2.2v9.3h8v-9.3h2.9v-7.7h-2.9V10.7c0-2.4,0.7-2.8,2.4-2.8h0.4V0.2H238c-5.6,0-8,2.3-8,8.6v22h-2.2L227.9,38.5
			z"/>
	</g>
</g>
<g>
	<defs>
		<polyline id="SVGID_27_" points="62,155.1 62,246.2 497.7,246.2 497.7,155.1 		"/>
	</defs>
	<clipPath id="SVGID_28_">
		<use xlink:href="#SVGID_27_"  style="overflow:visible;"/>
	</clipPath>
	<g transform="matrix(1.7651563782 0 0 -1.78571530455 62.012570715 245.133922815)" class="st13">
		<path class="st14" d="M220.8,10.9h1.4V4.1h2.2V2.9h-3.5V10.9z M233.6,5.9l-1.7,5h1.4l0.9-3.3l1,3.3h1.3l-1.6-5V2.9h-1.4L233.6,5.9
			z M209.3,10.9h1.4V8.3l1.4,2.6h1.4l-1.5-2.6l1.6-5.4h-1.4l-1.2,3.9l-0.3-0.5V2.9h-1.4V10.9z M199,10.9h3.7V9.7h-2.2V7.9h1.8V6.8
			h-1.8V4.1h2.2V2.9H199V10.9z M189.3,10.9h3.6V9.7h-2.3V7.9h1.9V6.8h-1.9V4.1h2.3V2.9h-3.6V10.9z M176.8,10.9h1.4l0.4-3.5l0.2-1.6
			l0.3,1.6l0.5,3.5h1.2l0.6-3.5l0.2-1.6l0.2,1.6l0.4,3.5h1.4l-1.4-8H181L180.3,8l-0.8-5.1h-1.4L176.8,10.9z"/>
	</g>
</g>
<g>
	<defs>
		<polyline id="SVGID_29_" points="62,155.1 62,246.2 497.7,246.2 497.7,155.1 		"/>
	</defs>
	<clipPath id="SVGID_30_">
		<use xlink:href="#SVGID_29_"  style="overflow:visible;"/>
	</clipPath>
	<g transform="matrix(1.7651563782 0 0 -1.78571530455 62.012570715 245.133922815)" class="st15">
		<path d="M242.4,44.8c0.1-0.2,0.3-0.5,0.4-0.8c0.2-0.2,0.5-0.4,0.8-0.5c0.3-0.2,0.6-0.2,1-0.2c0.3,0,0.6,0,0.9,0.2
			c0.3,0.1,0.6,0.3,0.8,0.5c0.2,0.2,0.4,0.5,0.5,0.8c0.1,0.3,0.2,0.7,0.2,1c0,0.4-0.1,0.7-0.2,1c-0.1,0.3-0.3,0.5-0.5,0.8
			c-0.1,0.2-0.4,0.4-0.8,0.5c-0.3,0.2-0.6,0.2-0.9,0.2c-0.4,0-0.7-0.1-1-0.2c-0.2-0.1-0.5-0.2-0.8-0.5c-0.1-0.2-0.4-0.5-0.4-0.8
			c-0.1-0.3-0.2-0.6-0.2-1C242.2,45.4,242.3,45.1,242.4,44.8z M242.9,46.5c0.1,0.2,0.2,0.5,0.4,0.6s0.4,0.3,0.6,0.5
			c0.2,0.1,0.4,0.2,0.8,0.2s0.5-0.1,0.8-0.2c0.2-0.2,0.4-0.3,0.6-0.5s0.3-0.4,0.4-0.6c0.1-0.2,0.2-0.5,0.2-0.8
			c0-0.2-0.1-0.5-0.2-0.8c-0.1-0.2-0.2-0.5-0.4-0.6s-0.4-0.3-0.6-0.4c-0.2-0.2-0.4-0.2-0.8-0.2s-0.5,0-0.8,0.2
			c-0.2,0.1-0.4,0.2-0.6,0.4s-0.3,0.4-0.4,0.6c-0.1,0.2-0.1,0.5-0.1,0.8C242.7,46,242.8,46.3,242.9,46.5z M245,45.6
			c0.1,0,0.3,0.1,0.4,0.2c0.1,0.1,0.2,0.2,0.2,0.5c0,0.2-0.1,0.2-0.1,0.3c-0.1,0.2-0.1,0.2-0.2,0.2c-0.1,0.1-0.2,0.2-0.4,0.2
			c-0.1,0-0.2,0.1-0.4,0.1h-0.8v-2.5h0.5v1h0.2l0.6-1h0.5L245,45.6L245,45.6z M244.6,46.6c0.1,0,0.3,0,0.4-0.1
			c0-0.1,0.1-0.2,0.1-0.2c0-0.2-0.1-0.2-0.1-0.3c-0.1-0.1-0.2-0.1-0.4-0.1h-0.2v0.7H244.6z"/>
	</g>
</g>
</svg>
